<?xml version="1.0" encoding="UTF-8"?>
<!DOCTYPE svg PUBLIC "-//W3C//DTD SVG 1.1//EN" "http://www.w3.org/Graphics/SVG/1.1/DTD/svg11.dtd">
<!-- Creator: CorelDRAW X7 -->
<svg xmlns="http://www.w3.org/2000/svg" xml:space="preserve" width="25mm" height="25mm" version="1.1" style="shape-rendering:geometricPrecision; text-rendering:geometricPrecision; image-rendering:optimizeQuality; fill-rule:evenodd; clip-rule:evenodd"
viewBox="0 0 2500 2500"
 xmlns:xlink="http://www.w3.org/1999/xlink">
 <defs>
  <style type="text/css">
   <![CDATA[
    .fil0 {fill:#E40082}
   ]]>
  </style>
 </defs>
 <g id="图层_x0020_1">
  <metadata id="CorelCorpID_0Corel-Layer"/>
  <path class="fil0" d="M843 1087l630 -1015 234 0c0,0 -260,848 -229,1015 297,0 620,5 620,5l151 -328 156 11c-28,272 -23,538 -9,810 5,80 9,163 9,163l-167 -5 -140 -307 -620 -6c0,0 -10,224 229,1005 6,0 -234,5 -234,5l-630 -1020 -640 0c0,0 -151,-16 -104,-245 9,-18 42,-80 113,-85 23,-1 48,2 72,2 544,-5 559,-5 559,-5z"/>
 </g>
</svg>
