<?xml version="1.0" encoding="UTF-8"?>
<!DOCTYPE svg PUBLIC "-//W3C//DTD SVG 1.1//EN" "http://www.w3.org/Graphics/SVG/1.1/DTD/svg11.dtd">
<!-- Creator: CorelDRAW X7 -->
<svg xmlns="http://www.w3.org/2000/svg" xml:space="preserve" width="25mm" height="25mm" version="1.1" style="shape-rendering:geometricPrecision; text-rendering:geometricPrecision; image-rendering:optimizeQuality; fill-rule:evenodd; clip-rule:evenodd"
viewBox="0 0 2500 2500"
 xmlns:xlink="http://www.w3.org/1999/xlink">
 <defs>
  <style type="text/css">
   <![CDATA[
    .fil0 {fill:#ACCE22}
   ]]>
  </style>
 </defs>
 <g id="图层_x0020_1">
  <metadata id="CorelCorpID_0Corel-Layer"/>
  <path class="fil0" d="M1421 1656l1015 -630 0 -234c0,0 -848,261 -1015,229 0,-296 -5,-619 -5,-619l328 -151 -11 -156c-272,28 -538,23 -810,8 -80,-4 -163,-8 -163,-8l5 166 307 141 5 619c0,0 -224,11 -1005,-229 0,-5 -5,234 -5,234l1021 630 0 641c0,0 15,150 244,104 19,-9 81,-43 86,-113 1,-24 -2,-49 -2,-73 5,-544 5,-559 5,-559z"/>
 </g>
</svg>
