<?xml version="1.0" encoding="UTF-8"?>
<!DOCTYPE svg PUBLIC "-//W3C//DTD SVG 1.1//EN" "http://www.w3.org/Graphics/SVG/1.1/DTD/svg11.dtd">
<!-- Creator: CorelDRAW X7 -->
<svg xmlns="http://www.w3.org/2000/svg" xml:space="preserve" width="25mm" height="25mm" version="1.1" style="shape-rendering:geometricPrecision; text-rendering:geometricPrecision; image-rendering:optimizeQuality; fill-rule:evenodd; clip-rule:evenodd"
viewBox="0 0 2500 2500"
 xmlns:xlink="http://www.w3.org/1999/xlink">
 <defs>
  <style type="text/css">
   <![CDATA[
    .fil0 {fill:#FDD100}
   ]]>
  </style>
 </defs>
 <g id="图层_x0020_1">
  <metadata id="CorelCorpID_0Corel-Layer"/>
  <path class="fil0" d="M1661 1415l-630 1015 -234 0c0,0 260,-849 229,-1015 -297,0 -620,-5 -620,-5l-151 328 -156 -11c28,-272 23,-538 9,-810 -4,-80 -9,-163 -9,-163l167 5 140 307 620 5c0,0 10,-224 -229,-1004 -5,0 234,-5 234,-5l630 1020 640 0c0,0 151,15 105,244 -9,19 -43,81 -113,85 -24,2 -49,-1 -73,-1 -544,5 -559,5 -559,5z"/>
 </g>
</svg>
