<?xml version="1.0" encoding="UTF-8"?>
<!DOCTYPE svg PUBLIC "-//W3C//DTD SVG 1.1//EN" "http://www.w3.org/Graphics/SVG/1.1/DTD/svg11.dtd">
<!-- Creator: CorelDRAW X7 -->
<svg xmlns="http://www.w3.org/2000/svg" xml:space="preserve" width="25mm" height="25mm" version="1.1" style="shape-rendering:geometricPrecision; text-rendering:geometricPrecision; image-rendering:optimizeQuality; fill-rule:evenodd; clip-rule:evenodd"
viewBox="0 0 2500 2500"
 xmlns:xlink="http://www.w3.org/1999/xlink">
 <defs>
  <style type="text/css">
   <![CDATA[
    .fil0 {fill:#A0D9F6}
   ]]>
  </style>
 </defs>
 <g id="图层_x0020_1">
  <metadata id="CorelCorpID_0Corel-Layer"/>
  <path class="fil0" d="M1080 839l-1015 630 0 234c0,0 849,-260 1015,-229 0,297 6,619 6,619l-328 151 10 156c272,-28 538,-23 810,-8 80,4 164,8 164,8l-6 -166 -307 -141 -5 -619c0,0 224,-10 1005,229 0,5 5,-234 5,-234l-1020 -630 0 -640c0,0 -16,-151 -245,-104 -18,9 -80,42 -85,113 -2,23 1,48 1,72 -5,544 -5,559 -5,559z"/>
 </g>
</svg>
